# xmcd CD database file
#
# Track frame offsets:
#	150
#	18763
#	36118
#	59744
#	81390
#	101016
#	132081
#	156677
#	176407
#	198434
#	223126
#
# Disc length: 3191 seconds
#
# Revision: 0
# Processed by: cddbd v1.5.2PL0 Copyright (c) Steve Scherf et al.
# Submitted via: CDex 1.51
#
DISCID=9e0c750b
DTITLE=Zé Canuto - Zé Canuto
DYEAR=2006
DGENRE=Jazz
TTITLE0=Os Meninos
TTITLE1=Lindeza
TTITLE2=Cavalo de Batalha
TTITLE3=Terra da Esperança
TTITLE4=Igual na França
TTITLE5=Saudade do Começo
TTITLE6=Tamo Junto
TTITLE7=Minha esperança
TTITLE8=Forte Abraço
TTITLE9=Vamo Viver
TTITLE10=Tu és Fiel
EXTD=YEAR: 2006
EXTT0=
EXTT1=
EXTT2=
EXTT3=
EXTT4=
EXTT5=
EXTT6=
EXTT7=
EXTT8=
EXTT9=
EXTT10=
PLAYORDER=
